# xmcd CD database file
#
# Track frame offsets:
#	150
#	20385
#	40227
#	61727
#	78482
#	102807
#	121862
#	132322
#	144382
#	161955
#	174482
#	192577
#	210020
#	222475
#
# Disc length: 3201 seconds
#
# Revision: 2
# Processed by: cddbd v1.4PL0 Copyright (c) Steve Scherf et al.
# Submitted via: CDex 1.40Beta4
#
DISCID=c00c7f0e
DTITLE=Rudy Balliu - Rudy Balliu in New Orleans
DYEAR=1996
DGENRE=Blues
TTITLE0=Sheik of Araby
TTITLE1=Little Coquette
TTITLE2=B Flat blues
TTITLE3=Deep in the heart of Texas
TTITLE4=I'm confessin'
TTITLE5=Yes sir, that's my Baby
TTITLE6=Amapola
TTITLE7=Who threw the whiskey in the well
TTITLE8=E Flat blues
TTITLE9=Siboney
TTITLE10=Outskirts of town
TTITLE11=Over in the Gloryland
TTITLE12=In my solitude
TTITLE13=Shake it and break it
EXTD=YEAR: 1996 ID3G:   0
EXTT0=
EXTT1=
EXTT2=
EXTT3=
EXTT4=
EXTT5=
EXTT6=
EXTT7=
EXTT8=
EXTT9=
EXTT10=
EXTT11=
EXTT12=
EXTT13=
PLAYORDER=
